<?xml version="1.0" standalone="no"?>
<!DOCTYPE svg PUBLIC "-//W3C//DTD SVG 20010904//EN"
 "http://www.w3.org/TR/2001/REC-SVG-20010904/DTD/svg10.dtd">
<svg version="1.0" xmlns="http://www.w3.org/2000/svg"
 width="532.000000pt" height="532.000000pt" viewBox="0 0 532.000000 532.000000"
 preserveAspectRatio="xMidYMid meet">
<metadata>
Created by potrace 1.11, written by Peter Selinger 2001-2013
</metadata>
<g transform="translate(0.000000,532.000000) scale(0.100000,-0.100000)"
fill="#000000" stroke="none">
<path d="M2510 5310 c-8 -5 -24 -10 -35 -10 -12 0 -40 -18 -64 -40 -41 -39
-43 -43 -38 -86 3 -30 15 -58 35 -82 l29 -37 111 0 111 0 -6 -29 c-10 -46 25
-66 118 -66 59 0 78 4 82 15 9 22 -7 27 -84 27 -65 1 -70 2 -67 22 2 11 15 26
29 33 35 17 50 36 40 51 -6 10 -23 10 -82 1 -41 -6 -111 -13 -156 -16 l-82 -4
-21 33 c-27 45 -25 71 10 111 25 29 39 35 102 46 108 18 118 20 118 31 0 13
-130 13 -150 0z"/>
<path d="M3050 5281 c0 -22 4 -51 10 -66 13 -34 58 -73 95 -81 17 -3 41 -13
54 -21 19 -12 45 -14 118 -11 52 3 99 10 106 17 6 6 19 11 28 11 15 0 17 -6
12 -37 -3 -21 -7 -40 -9 -41 -4 -6 -118 21 -128 30 -6 4 -47 8 -93 8 -67 0
-92 -5 -127 -22 -25 -13 -47 -32 -50 -43 -10 -36 -6 -90 9 -119 17 -32 12 -46
-14 -46 -29 0 -84 -26 -105 -49 -11 -12 -24 -21 -31 -21 -6 0 -25 -15 -42 -32
-17 -18 -67 -69 -112 -112 -44 -43 -81 -81 -81 -83 0 -3 -21 -26 -47 -51 l-46
-47 -131 -6 c-72 -4 -221 -12 -331 -18 -110 -6 -294 -16 -410 -22 -328 -18
-467 -26 -650 -38 -93 -6 -210 -14 -260 -16 -49 -3 -103 -8 -120 -11 -16 -3
-66 -8 -110 -9 -44 -2 -145 -7 -225 -10 -80 -4 -192 -8 -250 -10 l-105 -3 -2
-317 -2 -318 177 6 c353 13 680 28 842 37 162 9 250 5 250 -11 0 -4 12 -1 28
7 24 12 27 12 30 -1 4 -19 32 -20 32 -1 0 14 31 21 138 32 72 8 84 2 69 -30
-7 -14 -15 -26 -19 -26 -5 0 -8 -12 -8 -28 0 -15 -16 -51 -36 -80 -31 -46 -37
-51 -47 -38 -21 28 -118 42 -101 15 3 -5 10 -7 15 -4 5 3 24 -1 43 -10 32 -16
36 -22 55 -102 27 -114 21 -125 -62 -121 l-62 3 -12 79 c-7 43 -17 84 -23 90
-14 14 -13 22 6 40 14 15 14 16 -4 16 -29 0 -52 -10 -52 -23 0 -6 10 -21 22
-34 18 -19 22 -35 22 -96 l1 -72 -62 -3 -62 -3 -6 38 c-15 97 -30 153 -40 153
-22 0 -24 -13 -8 -49 24 -57 33 -103 22 -123 -8 -15 -22 -18 -84 -18 -66 0
-76 2 -86 22 l-12 22 -8 -22 c-9 -24 -37 -30 -45 -8 -6 15 16 67 43 106 13 18
14 22 3 15 -33 -20 -41 -33 -66 -115 -15 -47 -34 -101 -44 -120 -9 -19 -25
-69 -35 -109 -9 -41 -21 -82 -25 -90 -29 -60 -43 -106 -59 -200 -10 -59 -24
-117 -30 -129 -10 -18 -9 -22 3 -22 17 0 18 5 37 115 11 71 33 154 50 190 5
11 15 40 22 64 7 25 17 46 23 48 11 4 44 -76 84 -202 12 -38 27 -79 34 -90 7
-11 21 -46 31 -77 16 -47 17 -65 9 -97 -6 -22 -7 -46 -2 -53 4 -7 5 -39 2 -70
-4 -34 -2 -63 4 -70 5 -7 17 -49 27 -94 16 -77 16 -82 0 -115 -22 -42 -63
-160 -75 -214 -5 -22 -13 -53 -19 -68 -6 -16 -16 -72 -22 -125 -9 -81 -18
-112 -55 -191 -24 -52 -56 -110 -70 -129 -26 -33 -27 -57 -2 -31 64 65 107
161 134 297 39 197 70 312 85 312 5 0 21 -19 36 -42 15 -24 32 -47 38 -53 6
-5 17 -28 23 -50 6 -22 25 -80 42 -129 37 -110 70 -337 51 -360 -15 -18 -97
-57 -181 -86 -108 -37 -120 -42 -120 -51 0 -5 3 -8 8 -8 18 3 30 -3 67 -36 22
-20 67 -50 99 -66 49 -26 66 -30 100 -24 23 4 55 15 71 26 27 16 57 31 120 60
11 5 38 20 60 34 22 13 58 34 79 46 21 11 44 25 50 30 33 29 123 79 136 77 13
-3 14 -19 10 -98 -6 -106 -5 -252 1 -505 4 -155 2 -173 -16 -210 -11 -22 -29
-67 -39 -100 -10 -33 -25 -73 -32 -90 -47 -112 -76 -212 -121 -423 l-5 -22
1687 0 1688 0 -7 28 c-3 15 -17 74 -31 132 -25 101 -39 177 -70 375 -49 310
-61 504 -46 770 6 105 13 307 16 450 5 241 4 266 -15 343 -26 104 -33 121 -92
208 -64 97 -92 126 -163 167 -90 52 -434 127 -580 127 -79 0 -156 18 -182 42
-27 26 -28 35 -6 60 21 23 12 23 -14 0 -31 -26 -63 -89 -63 -121 0 -30 -58
-112 -115 -162 -16 -15 -43 -39 -58 -53 -15 -14 -32 -26 -36 -26 -5 0 -38 -18
-74 -40 -36 -21 -78 -42 -94 -46 -15 -3 -62 -17 -103 -31 -103 -34 -160 -45
-265 -50 -105 -6 -162 5 -298 54 -110 40 -190 93 -254 170 -59 71 -72 108
-103 288 -16 88 -29 150 -29 137 -1 -32 -23 -37 -102 -22 -64 11 -87 25 -94
60 -1 3 -5 26 -9 52 -6 36 -17 55 -42 78 -40 35 -40 35 -78 15 -34 -18 -42
-14 -49 22 -2 16 -18 75 -35 133 -17 58 -34 122 -37 143 -7 37 -9 38 -44 35
-34 -3 -36 -2 -34 27 1 16 11 42 23 57 l20 27 -20 19 c-12 11 -26 46 -35 83
-7 35 -14 60 -15 54 -1 -5 -2 -14 -1 -18 1 -4 -3 -16 -9 -27 -8 -15 -5 -27 15
-56 25 -37 33 -78 16 -88 -5 -3 -12 -22 -15 -41 -5 -23 -13 -35 -24 -36 -40
-3 -75 0 -82 8 -4 4 -14 46 -23 93 -15 79 -15 86 1 110 9 14 26 45 38 70 12
25 34 59 50 75 28 29 33 30 107 29 83 -2 112 -15 120 -58 2 -11 3 -1 1 24 -1
25 -3 46 -3 48 -1 2 -15 9 -32 16 -30 13 -26 14 67 20 55 4 133 7 174 6 41 0
96 2 123 3 51 4 54 2 32 -27 -8 -11 -15 -33 -15 -48 0 -16 -16 -70 -36 -121
-35 -87 -37 -100 -41 -232 -4 -110 -2 -154 12 -205 33 -130 47 -170 55 -165 5
3 2 24 -6 47 -42 120 -56 211 -51 323 6 108 10 129 48 230 11 28 19 57 19 65
0 18 121 220 132 220 7 0 38 43 93 128 6 9 31 48 56 86 44 69 89 163 89 187 0
6 12 38 27 71 26 58 44 83 113 158 19 21 44 50 55 64 11 14 25 25 30 26 6 0
21 15 35 33 14 17 39 46 57 63 18 17 33 35 33 40 0 22 123 77 152 68 10 -3 21
3 27 14 6 11 29 24 53 30 84 20 177 34 195 28 22 -7 154 -27 203 -31 94 -7
249 -60 349 -119 34 -20 64 -36 66 -36 12 0 125 -93 158 -131 55 -60 114 -150
133 -200 9 -24 29 -71 45 -105 16 -33 29 -67 29 -75 0 -8 4 -19 8 -24 23 -27
43 -313 27 -385 -3 -14 -8 -45 -11 -70 -14 -124 -105 -427 -131 -437 -7 -3
-13 -11 -13 -19 0 -8 -4 -14 -9 -14 -5 0 -12 -12 -16 -27 -5 -22 -50 -90 -75
-113 -3 -3 -16 -21 -29 -40 -14 -19 -32 -40 -40 -46 -9 -7 -27 -21 -40 -33
-13 -12 -27 -21 -31 -21 -22 0 -27 125 -7 137 8 4 22 22 32 38 11 17 34 44 52
60 50 46 103 142 103 187 0 37 -8 49 -59 91 -21 17 -111 25 -111 9 0 -4 -14
-13 -32 -20 -17 -6 -29 -15 -25 -18 8 -9 89 16 100 31 6 7 10 6 14 -2 2 -7 12
-13 22 -13 30 0 61 -38 61 -74 0 -66 -36 -120 -177 -262 -32 -32 -51 -44 -80
-47 l-38 -4 41 -1 c48 -2 49 -5 59 -95 5 -43 12 -67 20 -67 21 0 210 195 230
236 10 22 26 50 35 64 70 100 122 238 145 380 26 163 37 209 51 221 8 6 14 29
14 51 l0 40 113 -3 c130 -3 175 -12 105 -19 -47 -5 -47 -5 -35 -30 12 -23 18
-25 67 -23 99 4 115 7 115 23 0 8 5 24 12 35 10 17 27 20 150 27 76 4 188 12
248 17 61 6 122 10 138 10 l27 1 0 700 0 700 -29 0 c-29 0 -30 -2 -34 -52 l-3
-53 -2 53 c-2 47 -4 52 -25 52 l-23 0 -3 -352 c-1 -194 -5 -356 -7 -360 -3 -4
-56 -8 -117 -8 -102 0 -113 2 -125 20 -16 26 -12 32 43 67 57 36 81 93 62 151
-10 31 -18 39 -50 46 -20 5 -37 14 -37 18 0 5 15 24 34 41 38 37 62 116 52
172 -12 61 -93 83 -186 50 -24 -8 -45 -14 -46 -12 -2 2 17 25 42 53 51 54 64
75 64 98 0 14 -41 16 -377 16 l-378 -1 35 -19 c19 -11 45 -19 57 -20 12 0 25
-5 29 -11 7 -12 186 -7 232 7 17 5 22 2 22 -12 0 -11 7 -28 15 -38 8 -11 15
-28 15 -38 0 -15 -5 -17 -27 -12 -119 30 -263 -18 -303 -102 -32 -65 -27 -88
31 -144 l52 -50 81 4 c44 1 89 6 99 11 9 4 17 3 17 -2 0 -4 -10 -13 -22 -18
-33 -15 -77 -85 -78 -123 0 -70 56 -122 132 -122 77 0 230 41 258 70 14 15 31
6 51 -28 12 -20 29 -43 38 -50 27 -22 -5 -32 -104 -33 -49 0 -101 -3 -115 -5
-36 -6 -155 -13 -310 -19 -74 -3 -160 -7 -190 -10 l-55 -6 -65 63 c-36 35 -81
72 -100 82 -19 11 -39 24 -45 28 -30 25 -88 58 -100 58 -25 0 -16 17 16 30 51
22 103 85 107 131 10 123 -149 159 -383 89 -33 -10 -61 -18 -62 -16 -3 3 15
127 19 131 2 2 26 -1 53 -6 81 -16 186 -2 258 34 34 17 71 39 81 49 11 10 23
18 26 18 4 0 12 11 18 25 27 58 52 55 -448 55 l-460 0 0 -39z m2207 -188 c-3
-10 -5 -2 -5 17 0 19 2 27 5 18 2 -10 2 -26 0 -35z m-528 -42 c-24 -33 -39
-40 -39 -17 0 14 51 58 58 51 2 -2 -6 -17 -19 -34z m528 -108 c-2 -21 -4 -6
-4 32 0 39 2 55 4 38 2 -18 2 -50 0 -70z m-563 8 c6 -9 -54 -25 -62 -16 -3 2
6 9 19 14 31 13 37 13 43 2z m561 -147 c-4 -104 -15 -142 -15 -52 0 56 10 148
16 148 2 0 2 -43 -1 -96z m-4 -157 c-8 -8 -11 -7 -11 4 0 20 13 34 18 19 3 -7
-1 -17 -7 -23z m39 -61 c0 -3 -4 -8 -10 -11 -5 -3 -10 -1 -10 4 0 6 5 11 10
11 6 0 10 -2 10 -4z m-2788 -278 c-6 -6 -8 -1 -7 14 5 46 8 52 12 24 3 -16 0
-33 -5 -38z m-939 -5 c-7 -2 -19 -2 -25 0 -7 3 -2 5 12 5 14 0 19 -2 13 -5z
m-1013 -13 c0 -5 -5 -10 -11 -10 -5 0 -7 5 -4 10 3 6 8 10 11 10 2 0 4 -4 4
-10z m3770 -10 c0 -5 -5 -10 -11 -10 -5 0 -7 5 -4 10 3 6 8 10 11 10 2 0 4 -4
4 -10z m-1837 -17 c-4 -10 -9 -11 -19 -2 -19 15 -18 18 5 16 11 -1 17 -6 14
-14z m-13 -42 c0 -10 -9 -26 -20 -36 -19 -18 -20 -17 -20 4 0 12 4 19 10 16 6
-4 10 5 10 20 0 15 4 24 10 20 6 -3 10 -14 10 -24z m-1883 -7 c-3 -3 -12 -4
-19 -1 -8 3 -5 6 6 6 11 1 17 -2 13 -5z m3796 -24 c-3 -12 -8 -19 -11 -16 -5
6 5 36 12 36 2 0 2 -9 -1 -20z m-36 -22 c-3 -8 -6 -5 -6 6 -1 11 2 17 5 13 3
-3 4 -12 1 -19z m-1923 -14 c3 -8 2 -12 -4 -9 -6 3 -10 10 -10 16 0 14 7 11
14 -7z m1939 -38 c-3 -4 -9 -2 -14 5 -13 22 -11 31 5 17 8 -7 12 -17 9 -22z
m21 -66 c5 -26 4 -32 -5 -23 -7 7 -14 27 -16 45 -4 42 12 25 21 -22z m-2023
-7 c-12 -20 -14 -14 -5 12 4 9 9 14 11 11 3 -2 0 -13 -6 -23z m2656 -19 c-3
-3 -12 -4 -19 -1 -8 3 -5 6 6 6 11 1 17 -2 13 -5z m-2747 -104 c0 -5 -5 -10
-11 -10 -5 0 -7 5 -4 10 3 6 8 10 11 10 2 0 4 -4 4 -10z m2450 -60 c0 -5 -9
-10 -20 -10 -11 0 -20 5 -20 10 0 6 9 10 20 10 11 0 20 -4 20 -10z m-4097 -47
c-13 -2 -33 -2 -45 0 -13 2 -3 4 22 4 25 0 35 -2 23 -4z m1223 -848 c-7 -19
20 -45 46 -45 17 0 18 2 8 15 -7 8 -19 15 -27 15 -26 0 -8 25 20 28 23 3 27 0
27 -23 0 -15 8 -39 19 -53 10 -15 21 -45 25 -67 12 -68 27 -104 60 -148 23
-31 78 -123 117 -197 24 -45 53 -128 96 -270 31 -107 37 -118 85 -165 28 -27
63 -59 78 -70 15 -11 71 -54 125 -95 54 -41 112 -84 129 -95 18 -11 49 -33 71
-48 82 -58 175 -116 196 -122 12 -4 45 -22 73 -39 28 -18 67 -38 86 -45 32
-12 81 -33 155 -67 17 -7 59 -23 95 -35 36 -12 90 -34 120 -50 58 -29 116 -41
113 -23 -1 6 8 22 20 37 22 26 23 26 99 17 87 -10 235 -58 321 -104 32 -17 75
-40 96 -51 48 -25 168 -119 203 -159 43 -49 54 -82 39 -125 -11 -30 -123 -245
-156 -300 -6 -9 -23 -37 -38 -62 -25 -42 -86 -105 -198 -203 -24 -21 -67 -60
-96 -87 -54 -51 -84 -60 -135 -40 -55 21 -114 44 -133 51 -11 4 -59 16 -107
28 -47 11 -107 30 -132 42 -25 11 -58 25 -73 31 -40 14 -213 132 -213 145 0 6
-18 20 -40 33 -22 12 -40 25 -40 29 0 4 -44 43 -97 87 -140 115 -489 472 -566
577 -16 23 -97 108 -178 190 -130 129 -153 148 -182 148 -17 0 -63 9 -102 19
-156 42 -191 53 -220 65 -85 39 -136 57 -190 69 -99 23 -149 53 -215 127 -33
37 -60 73 -60 79 0 7 -7 23 -16 37 -9 13 -14 27 -12 30 6 5 61 -28 110 -65 29
-23 38 -26 38 -11 0 6 -4 10 -10 10 -24 0 -144 123 -169 174 -49 102 -69 156
-57 156 15 0 36 -14 36 -24 0 -16 54 -76 68 -76 7 0 12 -6 12 -12 0 -14 69
-63 77 -55 2 3 -10 15 -27 27 -71 51 -157 155 -167 203 -4 18 -12 27 -24 27
-14 0 -19 7 -19 29 0 40 16 47 36 16 12 -19 20 -23 29 -15 10 8 16 8 22 -2 5
-7 28 -31 52 -53 l44 -40 -19 33 c-10 17 -22 32 -26 32 -12 0 -48 43 -65 78
-9 19 -26 37 -38 42 -22 8 -36 51 -27 78 5 17 32 15 32 -2 0 -14 29 -31 38
-21 3 2 -1 11 -8 20 -10 12 -10 15 1 15 17 0 167 -76 189 -95 25 -23 324 -68
402 -62 79 7 151 36 168 68 15 27 7 115 -16 179 -21 56 -29 186 -15 223 6 15
18 27 27 27 10 0 14 -5 10 -15z"/>
<path d="M1280 2330 c8 -5 22 -10 30 -10 13 0 13 1 0 10 -8 5 -22 10 -30 10
-13 0 -13 -1 0 -10z"/>
<path d="M1270 2150 c0 -5 7 -10 16 -10 8 0 12 5 9 10 -3 6 -10 10 -16 10 -5
0 -9 -4 -9 -10z"/>
<path d="M1360 2100 c0 -5 5 -10 11 -10 5 0 7 5 4 10 -3 6 -8 10 -11 10 -2 0
-4 -4 -4 -10z"/>
<path d="M1335 1970 c9 -15 45 -32 45 -22 0 5 -12 14 -26 20 -14 7 -23 8 -19
2z"/>
<path d="M3634 1304 c26 -20 50 -33 53 -30 8 7 8 7 -41 40 -58 39 -66 32 -12
-10z"/>
<path d="M3705 1250 c3 -5 11 -10 16 -10 6 0 21 -12 34 -27 13 -16 25 -23 25
-16 0 6 -14 23 -31 37 -30 26 -56 35 -44 16z"/>
<path d="M3790 1185 c0 -9 40 -75 46 -75 12 0 1 29 -21 54 -14 16 -25 26 -25
21z"/>
<path d="M248 5164 c-29 -16 -68 -60 -68 -78 0 -6 -9 -22 -19 -36 -18 -23 -18
-26 -3 -55 l16 -30 4 25 c6 55 13 69 54 109 28 27 52 41 69 41 49 0 44 -41
-11 -88 -21 -18 5 -33 37 -21 34 13 40 12 46 -11 5 -19 8 -18 71 15 36 19 66
33 66 30 0 -3 10 0 23 8 12 7 29 12 37 11 8 -1 21 -2 28 -3 20 -2 14 -31 -7
-31 -11 0 -23 -5 -27 -11 -3 -6 -22 -17 -40 -25 -19 -8 -34 -20 -34 -28 0 -22
29 -27 60 -11 36 19 91 20 85 2 -3 -7 -20 -19 -38 -26 -17 -8 -44 -22 -59 -33
-14 -10 -40 -18 -56 -18 -31 0 -48 -20 -30 -38 6 -6 27 -6 61 3 83 20 105 32
136 75 30 41 31 69 6 90 -8 6 -11 18 -8 26 11 29 -6 62 -36 69 -35 7 -145 -21
-162 -41 -26 -32 -84 -11 -74 27 14 55 -62 87 -127 53z"/>
<path d="M3115 4790 c3 -5 8 -10 11 -10 2 0 4 5 4 10 0 6 -5 10 -11 10 -5 0
-7 -4 -4 -10z"/>
<path d="M3190 4770 c0 -5 7 -10 16 -10 8 0 12 5 9 10 -3 6 -10 10 -16 10 -5
0 -9 -4 -9 -10z"/>
<path d="M3354 4719 c-8 -14 11 -33 25 -25 11 7 4 36 -9 36 -5 0 -12 -5 -16
-11z"/>
<path d="M3476 4681 c-4 -5 -2 -12 3 -15 5 -4 12 -2 15 3 4 5 2 12 -3 15 -5 4
-12 2 -15 -3z"/>
<path d="M3640 4616 c0 -9 7 -16 16 -16 9 0 14 5 12 12 -6 18 -28 21 -28 4z"/>
<path d="M3822 4519 c2 -6 8 -10 13 -10 5 0 11 4 13 10 2 6 -4 11 -13 11 -9 0
-15 -5 -13 -11z"/>
<path d="M2955 4360 c-3 -5 1 -10 9 -10 8 0 18 5 21 10 3 6 -1 10 -9 10 -8 0
-18 -4 -21 -10z"/>
<path d="M2720 4352 c-65 -10 -28 -17 77 -14 63 2 113 5 112 6 -7 6 -163 12
-189 8z"/>
<path d="M3985 4260 c-8 -13 4 -32 16 -25 12 8 12 35 0 35 -6 0 -13 -4 -16
-10z"/>
<path d="M3333 4250 c2 -8 17 -21 33 -29 86 -42 108 -54 116 -66 9 -13 19 -2
10 11 -4 6 -38 25 -77 43 -38 19 -74 39 -78 45 -6 7 -7 6 -4 -4z"/>
<path d="M2658 4193 c7 -3 16 -2 19 1 4 3 -2 6 -13 5 -11 0 -14 -3 -6 -6z"/>
<path d="M2748 4193 c12 -2 30 -2 40 0 9 3 -1 5 -23 4 -22 0 -30 -2 -17 -4z"/>
<path d="M2820 4197 c0 -2 9 -14 20 -27 l20 -23 0 26 c0 20 -5 27 -20 27 -11
0 -20 -2 -20 -3z"/>
<path d="M2695 4121 c-8 -26 4 -51 25 -51 18 0 36 43 25 60 -10 17 -43 11 -50
-9z"/>
<path d="M3546 4125 c25 -19 40 -19 24 0 -7 8 -20 15 -28 15 -13 0 -12 -3 4
-15z"/>
<path d="M2862 4110 c0 -14 2 -19 5 -12 2 6 2 18 0 25 -3 6 -5 1 -5 -13z"/>
<path d="M3305 4070 c-9 -15 -1 -23 21 -18 15 3 16 4 1 16 -11 9 -17 10 -22 2z"/>
<path d="M2910 4049 c0 -5 5 -7 10 -4 6 3 10 8 10 11 0 2 -4 4 -10 4 -5 0 -10
-5 -10 -11z"/>
<path d="M3331 3957 c-13 -13 -15 -54 -2 -62 10 -6 41 32 41 51 0 17 -26 24
-39 11z"/>
<path d="M2694 3829 c-4 -7 11 -29 37 -55 51 -50 78 -60 31 -11 -18 18 -32 38
-32 44 0 19 -27 36 -36 22z"/>
<path d="M2940 3725 c7 -8 16 -15 21 -15 5 0 9 7 9 15 0 9 -9 15 -21 15 -18 0
-19 -2 -9 -15z"/>
<path d="M1185 3701 c-3 -6 2 -11 12 -11 15 0 16 -2 3 -10 -12 -8 -11 -10 7
-10 15 0 20 5 19 18 -3 19 -31 28 -41 13z"/>
<path d="M1268 3693 c7 -3 16 -2 19 1 4 3 -2 6 -13 5 -11 0 -14 -3 -6 -6z"/>
<path d="M1807 3604 c-3 -6 -4 -31 -1 -55 4 -24 6 -59 6 -78 0 -22 3 -29 9
-20 10 16 10 103 0 139 -4 15 -10 20 -14 14z"/>
<path d="M1685 3551 c-6 -19 2 -51 14 -51 3 0 7 16 8 35 2 37 -12 47 -22 16z"/>
<path d="M2630 3540 c-13 -8 -12 -10 3 -10 9 0 17 5 17 10 0 12 -1 12 -20 0z"/>
<path d="M2720 3509 c0 -5 5 -7 10 -4 6 3 10 8 10 11 0 2 -4 4 -10 4 -5 0 -10
-5 -10 -11z"/>
<path d="M985 3500 c-3 -5 -1 -10 4 -10 6 0 11 5 11 10 0 6 -2 10 -4 10 -3 0
-8 -4 -11 -10z"/>
<path d="M2810 3486 c0 -9 6 -16 13 -16 16 0 46 20 30 20 -6 0 -18 3 -27 6
-11 4 -16 1 -16 -10z"/>
<path d="M2593 3479 c-7 -7 -13 -19 -13 -26 0 -19 -20 -16 -37 5 -12 15 -13
11 -7 -30 4 -32 1 -63 -11 -97 -9 -28 -14 -55 -10 -61 3 -5 23 -10 43 -10 58
0 170 -36 222 -70 8 -6 31 -17 50 -26 19 -8 54 -24 77 -35 65 -29 81 -26 103
25 18 38 19 53 10 120 -9 73 -32 140 -51 152 -5 3 -4 -6 3 -20 6 -15 9 -29 5
-32 -3 -3 -30 6 -61 20 -30 14 -81 32 -113 40 -53 13 -126 34 -178 51 -11 3
-26 0 -32 -6z m157 -219 c0 -5 -9 -6 -20 -3 -11 3 -17 9 -15 14 7 10 35 1 35
-11z m100 -24 c0 -20 30 -29 37 -11 5 13 7 13 19 -2 13 -17 13 -17 14 0 0 11
6 17 13 14 6 -2 10 -14 9 -27 -3 -21 -2 -22 11 -12 11 9 17 10 22 2 9 -15 -2
-43 -14 -35 -5 3 -12 1 -16 -5 -4 -7 -12 -7 -24 0 -10 5 -21 7 -24 3 -3 -3
-13 2 -22 11 -9 9 -23 16 -31 16 -8 0 -14 6 -14 14 0 8 -5 16 -12 18 -15 5 -1
28 18 28 8 0 14 -6 14 -14z"/>
<path d="M2924 3445 c8 -8 18 -15 22 -15 3 0 1 7 -6 15 -7 8 -17 15 -22 15 -5
0 -3 -7 6 -15z"/>
<path d="M3990 3356 c0 -2 7 -6 15 -10 8 -3 15 -1 15 4 0 6 -7 10 -15 10 -8 0
-15 -2 -15 -4z"/>
<path d="M3910 3330 c-15 -15 -20 -33 -20 -73 0 -29 -5 -58 -12 -65 -6 -6 -8
-15 -5 -19 17 -16 40 28 43 82 2 37 9 64 20 76 23 26 0 25 -26 -1z"/>
<path d="M2161 2923 c-1 -12 4 -25 9 -28 12 -7 12 2 0 30 -8 19 -9 19 -9 -2z"/>
<path d="M3846 2871 c-4 -7 -5 -15 -2 -18 9 -9 19 4 14 18 -4 11 -6 11 -12 0z"/>
<path d="M3733 2778 c-12 -6 -24 -17 -27 -25 -4 -9 4 -7 24 7 41 29 42 37 3
18z"/>
<path d="M2375 2740 c3 -5 8 -10 11 -10 2 0 4 5 4 10 0 6 -5 10 -11 10 -5 0
-7 -4 -4 -10z"/>
<path d="M2410 2720 c0 -5 5 -10 11 -10 5 0 7 5 4 10 -3 6 -8 10 -11 10 -2 0
-4 -4 -4 -10z"/>
<path d="M670 2663 c0 -5 -11 -21 -25 -37 -14 -16 -25 -32 -25 -36 0 -4 -14
-23 -30 -41 -17 -19 -38 -47 -47 -64 -9 -16 -30 -46 -47 -66 -17 -20 -42 -51
-56 -68 -14 -18 -33 -42 -42 -53 -10 -12 -18 -24 -18 -27 0 -3 -15 -23 -33
-43 -57 -65 -65 -76 -72 -96 -3 -12 -24 -43 -46 -69 -21 -26 -39 -52 -39 -56
0 -5 -15 -26 -33 -47 -18 -22 -39 -52 -46 -67 -8 -15 -25 -50 -39 -77 -40 -79
-52 -141 -52 -281 0 -205 24 -314 68 -315 10 0 10 3 -1 15 -26 26 -38 107 -40
285 -2 152 1 182 17 225 11 28 23 54 28 60 4 5 8 17 8 27 0 9 13 32 28 50 15
18 36 50 47 72 11 21 26 40 33 43 6 3 12 11 12 18 0 8 11 27 25 43 14 17 25
34 25 40 0 6 22 37 50 69 27 32 50 62 50 67 0 5 7 16 15 25 8 9 31 36 50 61
19 25 40 50 45 57 6 7 10 16 10 20 0 5 9 15 21 23 11 8 28 29 36 45 9 17 29
46 45 65 37 44 98 129 98 135 0 3 -4 5 -10 5 -5 0 -10 -3 -10 -7z"/>
<path d="M2525 2662 c6 -6 24 -13 40 -17 21 -4 25 -3 15 3 -24 15 -67 26 -55
14z"/>
<path d="M2608 2633 c7 -3 16 -2 19 1 4 3 -2 6 -13 5 -11 0 -14 -3 -6 -6z"/>
<path d="M2818 2623 c12 -2 30 -2 40 0 9 3 -1 5 -23 4 -22 0 -30 -2 -17 -4z"/>
<path d="M920 2510 c-7 -13 -7 -20 -1 -20 6 0 15 9 21 20 7 13 7 20 1 20 -6 0
-15 -9 -21 -20z"/>
<path d="M825 1293 c-11 -3 -24 -10 -30 -15 -7 -7 -2 -9 15 -4 14 3 31 6 38 6
6 0 12 5 12 10 0 10 -3 11 -35 3z"/>
<path d="M655 1250 c-3 -5 -2 -10 4 -10 5 0 13 5 16 10 3 6 2 10 -4 10 -5 0
-13 -4 -16 -10z"/>
<path d="M594 1241 c3 -5 15 -7 26 -4 28 7 25 13 -6 13 -14 0 -23 -4 -20 -9z"/>
<path d="M538 1223 c7 -3 16 -2 19 1 4 3 -2 6 -13 5 -11 0 -14 -3 -6 -6z"/>
<path d="M465 1210 c-3 -5 1 -10 10 -10 9 0 13 5 10 10 -3 6 -8 10 -10 10 -2
0 -7 -4 -10 -10z"/>
<path d="M168 1193 c6 -2 18 -2 25 0 6 3 1 5 -13 5 -14 0 -19 -2 -12 -5z"/>
<path d="M218 1193 c6 -2 18 -2 25 0 6 3 1 5 -13 5 -14 0 -19 -2 -12 -5z"/>
<path d="M260 1190 c0 -5 5 -10 10 -10 6 0 10 5 10 10 0 6 -4 10 -10 10 -5 0
-10 -4 -10 -10z"/>
<path d="M383 1193 c9 -2 25 -2 35 0 9 3 1 5 -18 5 -19 0 -27 -2 -17 -5z"/>
</g>
</svg>
